Coordinates
version=1
nRows=24
nColumns=24
inDegrees=yes

Units are S.I. units (second, meters, Newtons, ...)
Angles are in degrees.

endheader
time	pelvis_tilt	pelvis_list	pelvis_rotation	pelvis_tx	pelvis_ty	pelvis_tz	hip_flexion_r	hip_adduction_r	hip_rotation_r	knee_angle_r	ankle_angle_r	subtalar_angle_r	mtp_angle_r	hip_flexion_l	hip_adduction_l	hip_rotation_l	knee_angle_l	ankle_angle_l	subtalar_angle_l	mtp_angle_l	lumbar_extension	lumbar_bending	lumbar_rotation
      4.28000000	    -11.17317737	      1.15144142	     -4.69088866	     -1.19484238	     -0.02857306	     -0.25718093	     -4.10835707	      2.39537661	      8.67820788	    -13.81477284	      9.51809176	      5.54911825	     18.64852341	     34.15039437	     -0.83169506	     -1.94843182	     -5.19870762	     -0.12546963	      3.56343252	      9.10382651	      8.11233411	     -0.18222175	     14.16337458
      4.28500000	    -11.23958027	      1.28066996	     -4.83341775	     -1.18830493	     -0.02954318	     -0.25780275	     -4.15175731	      2.13278621	      8.46390263	    -14.36194022	      9.50725655	      6.31432748	     19.15540772	     34.19821567	     -0.73069579	     -2.08797964	     -5.77858836	     -0.40931414	      3.22020552	      9.18934219	      8.34928847	     -0.27675632	     14.29216240
      4.29000000	    -11.26501904	      1.36828618	     -4.85591635	     -1.18175003	     -0.03051152	     -0.25853876	     -4.26095257	      1.92189155	      8.15365465	    -14.87490445	      9.35547880	      6.88850555	     19.69180226	     34.23503279	     -0.59747461	     -2.06687055	     -6.42660264	     -0.77570875	      2.80779032	      9.35545677	      8.53029464	     -0.36422281	     14.23288498
      4.29500000	    -11.29492343	      1.48063635	     -4.92194384	     -1.17519776	     -0.03140921	     -0.25923185	     -4.34903459	      1.68549385	      7.98868953	    -15.40857290	      9.12947434	      7.39003465	     20.17344675	     34.27151571	     -0.46641903	     -2.11389826	     -7.08249845	     -1.24952011	      2.36020333	      9.49910886	      8.71890745	     -0.46818243	     14.25009060
      4.30000000	    -11.35392007	      1.66231492	     -4.95257307	     -1.16850727	     -0.03224024	     -0.25992604	     -4.40752081	      1.37732092	      7.80075949	    -15.94175083	      8.85320893	      7.87345092	     20.51016133	     34.33299703	     -0.25651178	     -2.23737262	     -7.73175233	     -1.80533098	      1.98846046	      9.55582526	      8.97291510	     -0.65726161	     14.24895213
      4.30500000	    -11.38584783	      1.79659952	     -4.96343486	     -1.16202506	     -0.03301488	     -0.26077751	     -4.42533666	      1.08884874	      7.42350754	    -16.56319290	      8.57774036	      8.63606931	     21.17726336	     34.38734535	     -0.06014756	     -2.17313454	     -8.38657687	     -2.51405649	      1.35973303	      9.76158513	      9.14776965	     -0.79005312	     14.18351460
      4.31000000	    -11.46152496	      2.08262196	     -4.95088268	     -1.15531876	     -0.03369274	     -0.26148783	     -4.41868097	      0.67049767	      7.21516552	    -17.15791871	      8.21050055	      9.08835977	     21.48306583	     34.48315914	      0.27032539	     -2.32172408	     -9.04298266	     -3.16953713	      1.01549956	      9.77252275	      9.42937978	     -1.10784530	     14.16981347
      4.31500000	    -11.52287219	      2.33664544	     -4.94225463	     -1.14889685	     -0.03427475	     -0.26237494	     -4.31422225	      0.23657194	      6.72245484	    -17.89812026	      7.89456627	     10.00969237	     22.18537923	     34.57743397	      0.59645814	     -2.24880759	     -9.68629965	     -3.97700684	      0.36559498	      9.86928921	      9.63708551	     -1.37376562	     14.08453343
      4.32000000	    -11.57100698	      2.63602579	     -4.81558928	     -1.14233537	     -0.03470469	     -0.26335886	     -4.26790507	     -0.24042552	      6.17342070	    -18.54277986	      7.28264247	     10.69229359	     23.07113209	     34.65938573	      1.04172176	     -2.07853351	    -10.32975555	     -4.82297501	     -0.27436122	      9.99317179	      9.85743621	     -1.71464428	     13.97562512
      4.32500000	    -11.65239478	      3.01558130	     -4.76252809	     -1.13589483	     -0.03505598	     -0.26420272	     -4.10571925	     -0.80120753	      5.75636625	    -19.32140202	      6.81440574	     11.52569813	     23.67146652	     34.81291791	      1.50660335	     -2.10422431	    -11.05248698	     -5.50415337	     -0.65209291	      9.92503391	     10.10310268	     -2.13615528	     13.90403194
      4.33000000	    -11.69887687	      3.40887255	     -4.58621949	     -1.12941300	     -0.03524885	     -0.26517332	     -3.98334323	     -1.38822575	      5.11455261	    -20.06441783	      6.05159487	     12.25247110	     24.67199012	     34.90489096	      2.08107501	     -1.76693243	    -11.74647714	     -6.21883651	     -1.18824149	      9.71981395	     10.31180928	     -2.60911703	     13.74087554
      4.33500000	    -11.77589380	      3.84259228	     -4.48171771	     -1.12301260	     -0.03536841	     -0.26603437	     -3.74968781	     -2.02924569	      4.54092591	    -20.94542904	      5.42858053	     13.23076048	     25.26061323	     35.07289015	      2.63447080	     -1.71562662	    -12.53100153	     -6.75241214	     -1.38857945	      9.50727560	     10.54818488	     -3.10720661	     13.63629113
      4.34000000	    -11.83197426	      4.27992621	     -4.29079203	     -1.11659078	     -0.03538154	     -0.26697249	     -3.52645640	     -2.68767955	      3.81177982	    -21.83822801	      4.63956328	     14.19691794	     26.00550866	     35.19916412	      3.26237918	     -1.39876226	    -13.30004239	     -7.26713363	     -1.68826209	      9.13701946	     10.75475212	     -3.63450283	     13.48882381
      4.34500000	    -11.86531429	      4.72805867	     -4.10720030	     -1.11016241	     -0.03529423	     -0.26788348	     -3.28488722	     -3.37335873	      3.04669541	    -22.78262204	      3.68566188	     15.14764881	     26.88514598	     35.28258673	      3.90760295	     -1.02523660	    -14.06086716	     -7.64532412	     -1.93564978	      8.62849706	     10.93797925	     -4.17710762	     13.32523581
      4.35000000	    -11.88961484	      5.17042629	     -3.90256547	     -1.10366715	     -0.03511740	     -0.26877785	     -3.04310284	     -4.06389439	      2.26621969	    -23.73805878	      2.58497319	     16.11566061	     27.78658978	     35.33965209	      4.56234190	     -0.63060544	    -14.81578087	     -7.91464209	     -2.07159701	      8.05385136	     11.12071663	     -4.72455120	     13.16004937
      4.35500000	    -11.88236373	      5.62636824	     -3.66696480	     -1.09709622	     -0.03481280	     -0.26969642	     -2.84813301	     -4.76697467	      1.55637076	    -24.62706728	      1.09394309	     16.83585133	     29.29588952	     35.32067575	      5.27616892	     -0.08915541	    -15.53441812	     -8.04522178	     -2.28892525	      6.91225757	     11.27308393	     -5.29654351	     12.96178020
      4.36000000	    -11.88739236	      6.02877995	     -3.45620647	     -1.09055579	     -0.03453262	     -0.27054279	     -2.56621431	     -5.43984723	      0.74138699	    -25.66924083	     -0.29020390	     17.78629245	     30.19279014	     35.31224309	      5.90040911	      0.29803865	    -16.24239161	     -8.08439482	     -2.25482373	      6.28794091	     11.43211005	     -5.80740994	     12.80660203
      4.36500000	    -11.87109120	      6.36746663	     -3.25159588	     -1.08400031	     -0.03422730	     -0.27135843	     -2.27268150	     -6.05795361	     -0.07056414	    -26.79260862	     -1.68275145	     18.80364634	     30.59712961	     35.25040173	      6.45519589	      0.65557328	    -16.89852395	     -8.08826477	     -2.16566997	      6.09397174	     11.56533610	     -6.25072501	     12.64739901
      4.37000000	    -11.85189146	      6.69921095	     -3.01859846	     -1.07748542	     -0.03387170	     -0.27225923	     -1.95463489	     -6.68444559	     -0.90168061	    -27.93039450	     -3.32856344	     19.65753673	     31.29292012	     35.13532712	      7.04799808	      1.17429526	    -17.47171917	     -8.15400714	     -2.32481916	      5.65961820	     11.67922849	     -6.68455218	     12.49672690
      4.37500000	    -11.84777880	      7.02032966	     -2.79484869	     -1.07080849	     -0.03351059	     -0.27301000	     -1.61452137	     -7.28079922	     -1.62271446	    -29.09937514	     -5.04497213	     20.35834763	     31.48573031	     34.99186281	      7.59075881	      1.47202529	    -17.97277387	     -8.10629980	     -2.29012172	      5.55948458	     11.84643021	     -7.12843198	     12.29338411
      4.38000000	    -11.84087308	      7.24154517	     -2.57697058	     -1.06422396	     -0.03317067	     -0.27398123	     -1.23372325	     -7.81646561	     -2.39864499	    -30.30001653	     -6.94629535	     21.06591128	     31.96658064	     34.78977198	      8.08903685	      2.02894642	    -18.39976932	     -8.02373790	     -2.62990643	      5.31833527	     11.98774997	     -7.42552101	     12.12632947
      4.38500000	    -11.82591669	      7.47243625	     -2.39663525	     -1.05774874	     -0.03277000	     -0.27473504	     -0.80385982	     -8.32862646	     -3.01451239	    -31.57714166	     -8.89672038	     21.46094399	     31.99008967	     34.56040061	      8.53328880	      2.34782709	    -18.76427059	     -7.93539442	     -2.73443508	      5.28346991	     12.10462767	     -7.75218773	     12.01092412
      4.39000000	    -11.80579048	      7.64658649	     -2.26917533	     -1.05133410	     -0.03242059	     -0.27556824	     -0.31811082	     -8.80811692	     -3.61687700	    -32.92943576	    -10.83307954	     21.76150539	     31.82915878	     34.28694357	      8.91291716	      2.67159050	    -19.06713480	     -7.73955412	     -2.95870079	      5.34336777	     12.21371672	     -7.97672432	     11.95472132
      4.39500000	    -11.85391634	      7.75543900	     -2.04340025	     -1.04494833	     -0.03208865	     -0.27661763	      0.22291796	     -9.20853843	     -4.15696640	    -34.24797918	    -12.88113377	     21.98334758	     31.75897017	     34.03254971	      9.30667578	      3.20136409	    -19.28408125	     -7.65990199	     -3.42495579	      5.37647431	     12.38268862	     -8.14286645	     11.75541125
